<svg width="24" height="24" viewBox="0 0 24 24" fill="none" xmlns="http://www.w3.org/2000/svg">
<path d="M19.3601 3.35999H4.63559C3.93143 3.35999 3.35999 3.91799 3.35999 4.60511V19.3932C3.35999 20.0813 3.93143 20.64 4.63559 20.64H19.3601C20.0647 20.64 20.64 20.0813 20.64 19.3932V4.60511C20.64 3.91799 20.0647 3.35999 19.3601 3.35999ZM8.48495 18.0849H5.92079V9.83879H8.48495V18.0849ZM7.20287 8.71127C7.00769 8.71127 6.81443 8.67281 6.63413 8.59809C6.45383 8.52337 6.29001 8.41386 6.15205 8.2758C6.01408 8.13775 5.90468 7.97387 5.83007 7.79351C5.75547 7.61316 5.71714 7.41988 5.71727 7.22471C5.71727 6.83073 5.87377 6.45289 6.15235 6.17431C6.43093 5.89573 6.80877 5.73923 7.20275 5.73923C7.59672 5.73923 7.97456 5.89573 8.25314 6.17431C8.53172 6.45289 8.68823 6.83073 8.68823 7.22471C8.68823 7.61876 8.53177 7.99669 8.25325 8.27544C7.97472 8.55419 7.59692 8.71095 7.20287 8.71127ZM18.084 18.0849H15.5239V14.075C15.5239 13.1184 15.5052 11.8884 14.1917 11.8884C12.8577 11.8884 12.6545 12.9302 12.6545 14.0057V18.0852H10.0925V9.83879H12.5513V10.9649H12.5863C12.9285 10.3169 13.7647 9.63311 15.0117 9.63311C17.6052 9.63311 18.0842 11.3405 18.0842 13.5617V18.0849H18.084Z" fill="white"/>
</svg>
